<svg xmlns="http://www.w3.org/2000/svg" width="1024" height="1024" viewBox="0 0 1024 1024">
  <defs>
    <linearGradient id="bg" x1="180" y1="120" x2="860" y2="920" gradientUnits="userSpaceOnUse">
      <stop stop-color="#252a31"/>
      <stop offset="1" stop-color="#090b0e"/>
    </linearGradient>
    <linearGradient id="trace" x1="180" y1="520" x2="850" y2="520" gradientUnits="userSpaceOnUse">
      <stop stop-color="#23d9e8"/>
      <stop offset="0.58" stop-color="#65f0f5"/>
      <stop offset="1" stop-color="#e94a43"/>
    </linearGradient>
    <filter id="glow" x="-30%" y="-80%" width="160%" height="260%"><feGaussianBlur stdDeviation="12" result="b"/><feMerge><feMergeNode in="b"/><feMergeNode in="SourceGraphic"/></feMerge></filter>
  </defs>
  <rect width="1024" height="1024" fill="url(#bg)"/>
  <path d="M222 588V452c0-44 27-85 68-102l109-46c35-15 74-22 112-22h121c50 0 98 20 133 56l72 73c18 18 28 42 28 67v110" fill="none" stroke="#edf2f4" stroke-width="56" stroke-linecap="round" stroke-linejoin="round"/>
  <path d="M291 418h448l-61-60c-17-16-39-25-62-25H499c-27 0-54 5-79 16l-129 54Z" fill="#c92e2d" opacity=".92"/>
  <circle cx="338" cy="620" r="82" fill="#11151a" stroke="#e9edef" stroke-width="38"/>
  <circle cx="730" cy="620" r="82" fill="#11151a" stroke="#e9edef" stroke-width="38"/>
  <path d="M120 551h168l48-77 77 163 84-251 82 218 55-89 50 36h220" fill="none" stroke="url(#trace)" stroke-width="34" stroke-linecap="round" stroke-linejoin="round" filter="url(#glow)"/>
  <path d="M512 760c66-28 124-1 147 18-25 80-75 126-147 155-72-29-122-75-147-155 23-19 81-46 147-18Z" fill="#b8282b"/>
  <path d="m463 833 31 31 69-74" fill="none" stroke="#fff" stroke-width="31" stroke-linecap="round" stroke-linejoin="round"/>
</svg>
